{"glyphs":{"0":{"ha":707,"x_min":0,"x_max":0,"o":"m 332 1094 b 35 621 163 1094 64 942 b 332 0 -6 171 139 0 l 375 0 b 672 621 568 0 713 171 b 375 1094 643 942 544 1094 z m 354 874 b 500 593 438 874 483 786 b 354 221 519 371 456 221 b 207 593 251 221 188 369 b 354 874 224 786 271 874 z "},"1":{"ha":375,"x_min":0,"x_max":0,"o":"m 104 417 b 28 0 104 219 81 89 l 347 0 b 271 417 294 89 271 219 l 271 676 b 347 1094 271 875 294 1004 l 28 1094 b 104 676 81 1004 104 875 z "},"2":{"ha":608,"x_min":0,"x_max":0,"o":"m 276 1094 l 56 1094 l 42 810 b 244 875 93 860 175 875 b 399 761 314 875 399 851 b 28 0 399 569 28 496 l 556 0 l 569 296 b 296 215 496 224 368 215 b 239 219 276 215 257 217 b 581 799 339 444 581 496 b 276 1094 581 972 458 1094 z "},"3":{"ha":608,"x_min":0,"x_max":0,"o":"m 389 369 b 232 219 389 274 332 219 b 28 285 164 219 81 232 l 42 0 l 276 0 b 581 317 476 0 581 124 b 460 597 581 443 540 538 b 558 808 526 647 558 718 b 268 1094 558 976 442 1094 l 47 1094 l 33 810 b 235 875 85 860 165 875 b 376 782 325 875 376 838 b 154 683 376 713 306 681 l 154 517 b 389 369 260 517 389 506 z "},"4":{"ha":638,"x_min":0,"x_max":0,"o":"m 28 493 l 28 318 l 364 318 b 290 0 357 175 333 74 l 610 0 b 533 417 557 89 533 219 l 533 676 b 567 1094 533 875 529 1007 l 250 1094 b 157 751 258 1004 219 875 z m 218 493 l 308 676 b 364 783 328 714 346 750 b 367 676 365 750 367 714 l 367 493 z "},"5":{"ha":608,"x_min":0,"x_max":0,"o":"m 125 565 b 389 397 331 565 389 511 b 218 219 389 293 324 219 b 28 285 163 219 81 232 l 42 0 l 276 0 b 581 360 476 0 581 168 b 215 733 581 632 453 735 l 215 872 b 288 878 239 875 263 878 b 561 797 360 878 488 871 l 547 1094 l 33 1094 l 33 565 z "},"6":{"ha":696,"x_min":0,"x_max":0,"o":"m 353 1094 b 28 474 63 1094 28 714 b 356 0 28 168 158 0 b 668 347 557 0 668 169 b 363 744 668 617 526 744 b 215 701 310 744 244 728 b 388 875 239 824 297 875 b 581 810 454 875 531 860 l 567 1094 z m 356 524 b 356 221 521 524 538 221 b 356 524 171 221 189 524 z "},"7":{"ha":600,"x_min":0,"x_max":0,"o":"m 257 418 b 125 1 224 210 182 86 l 431 1 b 424 418 393 93 392 225 l 465 676 b 556 1094 493 849 506 960 l 42 1094 l 28 797 b 321 878 101 871 222 878 b 299 676 318 819 311 753 z "},"8":{"ha":706,"x_min":0,"x_max":0,"o":"m 335 1108 b 79 815 165 1108 79 954 b 150 617 79 742 103 669 b 328 -15 -58 449 1 -15 l 371 -15 b 553 619 696 -15 772 454 b 622 815 599 671 622 743 b 367 1108 622 954 536 1108 z m 351 888 b 426 793 396 888 426 851 b 351 704 426 746 399 704 b 275 793 303 704 275 746 b 351 888 275 851 307 888 z m 350 508 b 350 206 521 508 538 206 b 350 508 171 206 189 508 z "},"9":{"ha":696,"x_min":0,"x_max":0,"o":"m 343 0 b 668 619 633 6 668 381 b 340 1094 668 926 538 1094 b 28 747 139 1094 28 925 b 333 350 28 476 169 350 b 481 392 386 350 451 367 b 306 219 457 269 397 219 b 115 285 240 219 165 235 l 129 0 z m 340 571 b 340 874 175 571 158 874 b 340 571 525 874 507 571 z "}," ":{"ha":210,"x_min":0,"x_max":0,"o":""},"A":{"ha":785,"x_min":0,"x_max":0,"o":"m 160 417 b 28 0 124 204 85 83 l 333 0 b 315 331 301 78 299 183 b 393 340 339 338 364 340 b 469 331 422 340 447 338 b 451 0 486 183 483 78 l 757 0 b 625 417 700 85 661 208 l 581 676 b 588 1094 547 875 551 1004 l 197 1094 b 204 676 233 1004 238 875 z m 446 504 b 393 500 429 501 413 500 b 339 504 374 500 356 501 l 392 875 b 393 878 393 876 393 878 b 393 875 393 876 393 876 z "},"I":{"ha":375,"x_min":0,"x_max":0,"o":"m 104 417 b 28 0 104 219 81 89 l 347 0 b 271 417 294 89 271 219 l 271 676 b 347 1094 271 875 294 1004 l 28 1094 b 104 676 81 1004 104 875 z "},"H":{"ha":781,"x_min":0,"x_max":0,"o":"m 104 417 b 28 0 104 219 81 89 l 347 0 b 271 415 294 89 271 218 b 390 428 306 424 346 428 b 510 415 435 428 475 424 b 433 0 510 218 486 89 l 753 0 b 676 417 700 89 676 219 l 676 676 b 753 1094 676 875 700 1004 l 433 1094 b 510 676 486 1004 510 875 l 510 600 b 390 588 475 592 435 588 b 271 600 346 588 306 592 l 271 676 b 347 1094 271 875 294 1004 l 28 1094 b 104 676 81 1004 104 875 z "},"T":{"ha":681,"x_min":0,"x_max":0,"o":"m 28 1094 l 28 794 b 246 874 72 838 154 867 b 257 676 253 817 257 751 l 257 417 b 181 0 257 219 233 89 l 500 0 b 424 417 447 89 424 219 l 424 676 b 435 874 424 751 428 817 b 653 794 526 867 608 838 l 653 1094 z "},"E":{"ha":583,"x_min":0,"x_max":0,"o":"m 28 1094 l 38 1076 b 104 676 83 988 104 863 l 104 417 b 35 13 104 228 82 103 l 28 0 l 556 0 l 556 296 b 282 215 482 224 354 215 b 271 417 275 274 271 340 l 271 493 b 482 424 371 489 436 467 l 482 724 b 271 653 436 679 371 658 l 271 676 b 282 875 271 753 275 818 b 556 794 354 875 482 868 l 556 1094 z "},"B":{"ha":715,"x_min":0,"x_max":0,"o":"m 104 417 b 28 0 104 219 81 89 l 350 0 b 688 329 554 0 688 106 b 542 606 688 461 632 561 b 642 835 613 651 642 735 b 350 1094 642 1011 542 1094 l 28 1094 b 104 676 81 1004 104 875 z m 476 774 b 351 665 476 710 428 665 l 271 665 l 271 676 b 282 875 271 753 275 818 l 338 875 b 476 774 438 875 476 844 z m 514 375 b 338 219 514 269 460 219 l 282 219 b 271 417 275 276 271 342 l 271 542 l 351 542 b 514 375 469 542 514 482 z "},"D":{"ha":710,"x_min":0,"x_max":0,"o":"m 104 417 b 28 0 104 219 81 89 l 350 0 b 675 621 571 0 715 171 b 350 1094 646 954 540 1094 l 28 1094 b 104 676 81 1004 104 875 z m 503 593 b 303 219 524 358 450 219 l 282 219 b 271 417 275 275 271 342 l 271 676 b 282 875 271 753 275 818 l 303 875 b 503 593 433 875 485 800 z "},"R":{"ha":758,"x_min":0,"x_max":0,"o":"m 104 676 l 104 417 b 28 0 104 219 81 89 l 347 0 b 271 417 294 89 271 219 l 271 479 l 365 479 b 488 300 446 479 488 429 b 411 0 488 200 456 76 l 731 0 b 556 524 622 183 675 426 b 688 781 640 575 688 668 b 350 1094 688 989 554 1094 l 28 1094 b 104 676 81 1004 104 875 z m 514 742 b 351 611 514 657 449 611 l 271 611 l 271 676 b 282 875 271 753 275 818 l 338 875 b 514 742 458 875 514 832 z "},"P":{"ha":715,"x_min":0,"x_max":0,"o":"m 104 676 l 104 417 b 28 0 104 219 81 89 l 347 0 b 271 417 294 89 271 219 l 271 450 l 378 450 b 688 764 574 450 688 575 b 350 1094 688 989 554 1094 l 28 1094 b 104 676 81 1004 104 875 z m 514 725 b 351 582 514 632 454 582 l 271 582 l 271 676 b 282 875 271 753 275 818 l 338 875 b 514 725 460 875 514 829 z "},"U":{"ha":756,"x_min":0,"x_max":0,"o":"m 378 -1 b 651 311 567 -1 651 107 l 651 676 b 728 1094 651 875 675 1004 l 408 1094 b 485 676 461 1004 485 875 l 485 349 b 378 217 485 267 444 217 b 271 349 311 217 271 267 l 271 676 b 347 1094 271 875 294 1004 l 28 1094 b 104 676 81 1004 104 875 l 104 311 b 378 -1 104 107 189 -1 z "},"M":{"ha":1014,"x_min":0,"x_max":0,"o":"m 104 417 b 28 0 104 219 81 89 l 347 0 b 271 417 294 89 271 219 l 271 676 b 279 853 271 743 274 801 b 338 676 297 800 317 742 l 346 650 b 358 219 408 456 419 310 l 656 219 b 668 650 594 310 606 456 l 676 676 b 735 853 697 742 717 800 b 743 676 740 801 743 743 l 743 417 b 667 0 743 219 719 89 l 986 0 b 910 417 933 89 910 219 l 910 676 b 986 1094 910 875 933 1004 l 568 1094 b 526 676 600 1004 589 872 l 518 650 b 515 642 517 647 517 644 l 510 624 b 507 615 508 621 508 618 b 504 624 506 618 506 621 l 499 642 b 496 650 497 644 497 647 l 488 676 b 446 1094 425 872 414 1004 l 28 1094 b 104 676 81 1004 104 875 z "},"G":{"ha":674,"x_min":0,"x_max":0,"o":"m 207 593 b 400 875 225 796 275 872 b 608 810 469 874 554 864 l 608 1094 l 360 1094 b 35 621 169 1094 64 954 b 360 0 -6 171 139 0 l 604 0 l 604 347 b 646 639 604 475 622 603 l 396 639 b 438 347 419 603 438 475 l 438 219 l 407 219 b 207 593 260 219 186 358 z "},"C":{"ha":636,"x_min":0,"x_max":0,"o":"m 353 1094 b 35 621 167 1094 64 950 b 360 0 -6 171 139 0 l 594 0 l 608 285 b 400 219 554 231 469 219 b 207 593 257 219 186 361 b 388 875 224 790 271 875 b 581 810 454 875 531 858 l 567 1094 z "},"L":{"ha":625,"x_min":0,"x_max":0,"o":"m 104 417 b 28 0 104 219 81 89 l 583 0 l 597 296 b 324 215 524 224 396 215 b 282 217 310 215 296 215 b 271 417 275 274 271 340 l 271 676 b 347 1094 271 875 294 1004 l 28 1094 b 104 676 81 1004 104 875 z "},"N":{"ha":808,"x_min":0,"x_max":0,"o":"m 104 417 b 28 0 104 219 81 89 l 347 0 b 271 417 294 89 271 219 l 271 717 l 415 297 b 415 0 454 182 454 71 l 781 0 b 704 417 728 89 704 219 l 704 676 b 781 1094 704 875 728 1004 l 461 1094 b 538 676 514 1004 538 875 l 538 444 l 457 676 b 400 1094 388 875 356 1021 l 28 1094 b 104 676 81 1004 104 875 z "},"V":{"ha":785,"x_min":0,"x_max":0,"o":"m 160 676 l 204 417 b 211 0 238 219 247 89 l 574 0 b 581 417 538 89 547 219 l 625 676 b 757 1094 661 885 700 1010 l 451 1094 b 458 676 489 1001 486 871 l 393 219 b 392 217 392 218 392 217 b 392 219 392 218 392 218 l 326 676 b 333 1094 299 871 296 1001 l 28 1094 b 160 676 85 1011 124 890 z "},"W":{"ha":1206,"x_min":0,"x_max":0,"o":"m 160 676 l 204 417 b 211 0 238 219 247 89 l 574 0 b 581 417 538 89 549 219 l 603 554 l 625 417 b 632 0 657 219 668 89 l 994 0 b 1001 417 958 89 968 219 l 1046 676 b 1178 1094 1082 885 1121 1010 l 872 1094 b 879 676 910 1001 907 871 l 814 219 b 813 217 813 218 813 217 b 813 219 813 218 813 218 l 747 676 b 750 1085 721 864 717 993 b 751 1088 751 1086 751 1086 l 756 1092 b 757 1094 756 1093 757 1094 l 449 1094 b 450 1092 450 1094 450 1093 l 454 1088 b 456 1085 454 1086 456 1086 b 458 676 489 992 485 864 l 393 219 b 392 217 392 218 392 217 b 392 219 392 218 392 218 l 326 676 b 333 1094 299 871 296 1001 l 28 1094 b 160 676 85 1011 124 890 z "},"Y":{"ha":751,"x_min":0,"x_max":0,"o":"m 194 706 l 292 417 b 215 0 292 219 268 89 l 535 0 b 458 417 482 89 458 219 l 557 706 b 724 1094 626 908 660 1010 l 440 1094 b 389 706 469 1001 444 900 l 376 661 l 363 706 b 310 1094 306 900 281 1001 l 28 1094 b 194 706 92 1011 124 914 z "},"O":{"ha":735,"x_min":0,"x_max":0,"o":"m 346 1094 b 35 621 163 1094 64 942 b 346 0 -6 171 139 0 l 389 0 b 700 621 596 0 740 171 b 389 1094 671 942 572 1094 z m 368 874 b 528 593 465 874 511 786 b 368 221 547 371 483 221 b 207 593 251 221 188 369 b 368 874 224 786 271 874 z "},"F":{"ha":583,"x_min":0,"x_max":0,"o":"m 28 1094 l 36 1081 b 104 676 83 992 104 865 l 104 417 b 28 0 104 219 81 89 l 347 0 b 271 417 294 89 271 219 l 271 478 b 482 408 371 474 436 453 l 482 708 b 271 639 436 665 371 643 l 271 676 b 282 875 271 753 275 818 b 556 794 354 875 482 868 l 556 1094 z "},"J":{"ha":672,"x_min":0,"x_max":0,"o":"m 256 0 b 568 479 440 0 568 146 l 568 676 b 644 1094 568 875 592 1004 l 325 1094 b 401 676 378 1004 401 875 l 401 519 b 197 219 401 331 328 219 b 28 285 147 219 88 231 l 42 0 z "},"S":{"ha":636,"x_min":0,"x_max":0,"o":"m 329 1094 b 25 799 147 1094 25 972 b 221 515 25 661 97 575 b 424 340 378 439 424 401 b 250 219 424 283 383 219 b 56 285 183 219 107 233 l 69 0 l 283 0 b 608 329 485 0 608 132 b 347 654 608 538 463 603 b 207 779 271 689 207 717 b 361 875 207 838 254 875 b 564 810 431 875 513 861 l 550 1094 z "},"K":{"ha":785,"x_min":0,"x_max":0,"o":"m 104 417 b 28 0 104 219 81 89 l 347 0 b 271 417 294 89 271 219 l 271 479 l 365 479 b 488 300 446 479 488 429 b 411 0 488 200 456 76 l 731 0 b 542 535 619 190 679 446 b 682 828 614 590 660 686 b 757 1094 696 921 710 1015 l 438 1094 b 514 807 488 1011 514 910 b 351 611 514 694 460 611 l 271 611 l 271 676 b 347 1094 271 875 294 1004 l 28 1094 b 104 676 81 1004 104 875 z "},"X":{"ha":751,"x_min":0,"x_max":0,"o":"m 194 706 l 247 547 l 194 388 b 28 0 124 179 92 83 l 310 0 b 361 388 281 92 303 194 l 375 435 l 389 388 b 440 0 444 194 469 92 l 724 0 b 557 388 660 85 626 185 l 503 547 l 557 706 b 724 1094 626 908 660 1010 l 440 1094 b 389 706 469 1001 444 900 l 375 658 l 361 706 b 310 1094 303 900 281 1001 l 28 1094 b 194 706 92 1011 124 914 z "},"Q":{"ha":735,"x_min":0,"x_max":0,"o":"m 346 1094 b 35 621 163 1094 64 942 b 346 0 -6 171 139 0 l 389 0 b 444 4 408 0 426 1 b 450 -147 461 -56 463 -104 l 707 -15 b 594 85 667 1 629 33 b 700 621 686 183 724 365 b 389 1094 671 942 572 1094 z m 368 874 b 528 593 465 874 511 786 b 368 221 547 371 483 221 b 207 593 251 221 188 369 b 368 874 224 786 271 874 z "},"Z":{"ha":615,"x_min":0,"x_max":0,"o":"m 588 1094 l 38 1094 l 38 794 b 311 875 111 868 239 875 l 379 875 b 290 676 358 818 328 753 l 160 417 b 49 217 122 342 85 275 l 28 0 l 588 0 l 588 297 b 314 217 514 225 386 217 l 260 217 b 349 417 281 274 310 342 l 479 676 b 588 875 517 751 553 818 z "},".":{"ha":239,"x_min":0,"x_max":0,"o":"m 115 244 b 31 147 67 244 39 208 b 115 -4 18 51 51 -4 l 124 -4 b 208 147 188 -4 221 51 b 124 244 200 208 172 244 z "},",":{"ha":239,"x_min":0,"x_max":0,"o":"m 208 147 b 124 244 200 208 172 244 l 115 244 b 31 147 67 244 39 208 b 97 -3 19 61 44 7 b 46 -82 88 -40 71 -67 l 60 -115 b 208 147 172 -103 224 49 z "},"-":{"ha":572,"x_min":0,"x_max":0,"o":"m 286 460 b 531 404 414 460 492 442 l 531 646 b 286 590 492 608 414 590 b 42 646 158 590 81 608 l 42 404 b 286 460 81 442 158 460 z "},"+":{"ha":572,"x_min":0,"x_max":0,"o":"m 42 404 b 222 458 74 435 132 453 b 171 268 217 363 200 303 l 401 268 b 350 458 372 303 356 363 b 531 404 440 453 499 435 l 531 646 b 350 592 499 615 440 597 b 401 782 356 688 372 747 l 171 782 b 222 592 200 747 217 688 b 42 646 132 597 74 615 z "},"!":{"ha":375,"x_min":0,"x_max":0,"o":"m 118 283 l 257 283 l 271 676 b 347 1094 278 875 294 1004 l 28 1094 b 104 676 81 1004 97 875 z m 183 244 b 99 147 135 244 107 208 b 183 -4 86 51 119 -4 l 192 -4 b 276 147 256 -4 289 51 b 192 244 268 208 240 244 z "},"?":{"ha":646,"x_min":0,"x_max":0,"o":"m 138 342 l 138 283 l 276 283 l 276 333 b 604 799 276 524 604 485 b 269 1094 604 963 492 1092 l 56 1094 l 42 810 b 238 875 93 860 171 872 b 394 754 340 869 394 828 b 138 342 394 592 138 642 z m 203 244 b 118 147 154 244 126 208 b 203 -4 106 51 139 -4 l 211 -4 b 296 147 275 -4 308 51 b 211 244 288 208 260 244 z "},"'":{"ha":294,"x_min":0,"x_max":0,"o":"m 210 807 b 253 1108 211 906 224 1019 l 42 1108 b 85 807 71 1019 83 906 z "},"\"":{"ha":533,"x_min":0,"x_max":0,"o":"m 210 807 b 253 1108 211 906 224 1019 l 42 1108 b 85 807 71 1019 83 906 z m 449 807 b 492 1108 450 906 463 1019 l 281 1108 b 324 807 310 1019 322 906 z "},"=":{"ha":572,"x_min":0,"x_max":0,"o":"m 286 569 b 531 514 414 569 492 551 l 531 756 b 286 700 492 718 414 700 b 42 756 158 700 81 718 l 42 514 b 286 569 81 551 158 569 z m 286 299 b 531 243 414 299 492 282 l 531 486 b 286 431 492 447 414 431 b 42 486 158 431 81 447 l 42 243 b 286 299 81 282 158 299 z "},":":{"ha":267,"x_min":0,"x_max":0,"o":"m 129 886 b 44 789 81 886 53 850 b 129 638 32 693 65 638 l 138 638 b 222 789 201 638 235 693 b 138 886 214 850 186 886 z m 129 435 b 44 338 81 435 53 399 b 129 185 32 240 65 185 l 138 185 b 222 338 201 185 235 240 b 138 435 214 399 186 435 z "},";":{"ha":267,"x_min":0,"x_max":0,"o":"m 129 886 b 44 789 81 886 53 850 b 129 638 32 693 65 638 l 138 638 b 222 789 201 638 235 693 b 138 886 214 850 186 886 z m 222 338 b 138 435 214 399 186 435 l 129 435 b 44 338 81 435 53 399 b 111 188 33 251 58 197 b 60 108 101 150 85 124 l 74 75 b 222 338 186 88 238 239 z "},"<":{"ha":622,"x_min":0,"x_max":0,"o":"m 281 308 b 465 132 390 240 450 185 l 581 342 b 343 421 529 328 453 354 b 231 500 297 449 260 475 b 343 578 260 525 297 550 b 581 658 453 644 529 671 l 465 868 b 281 692 450 814 390 758 b 93 613 200 642 139 613 b 42 629 74 613 57 618 l 42 371 b 92 386 57 382 74 386 b 281 308 139 386 199 357 z "},">":{"ha":622,"x_min":0,"x_max":0,"o":"m 342 308 b 531 386 424 357 483 386 b 581 371 549 386 565 382 l 581 629 b 529 613 565 618 549 613 b 342 692 483 613 422 642 b 157 868 232 758 172 814 l 42 658 b 279 578 93 671 169 644 b 392 500 325 550 363 525 b 279 421 363 475 325 449 b 42 342 169 354 93 328 l 157 132 b 342 308 172 185 232 240 z "},"$":{"ha":561,"x_min":0,"x_max":0,"o":"m 67 96 l 197 96 b 157 0 189 51 175 21 l 388 0 b 346 106 368 22 354 57 b 533 356 465 135 533 225 b 303 644 533 536 404 597 b 185 751 239 674 185 700 b 308 825 185 794 219 825 b 482 771 368 825 438 813 l 469 1008 l 349 1008 b 388 1094 357 1047 371 1075 l 157 1094 b 197 997 175 1074 189 1042 b 28 763 89 968 28 881 b 244 493 28 599 147 542 b 374 374 314 460 374 432 b 229 279 374 314 326 279 b 54 333 171 279 101 290 z "},"|":{"ha":369,"x_min":0,"x_max":0,"o":"m 122 604 b 69 1 122 289 106 96 l 300 1 b 247 604 264 96 247 289 b 300 1206 247 919 264 1111 l 69 1206 b 122 604 106 1111 122 919 z "},"[":{"ha":401,"x_min":0,"x_max":0,"o":"m 42 1176 l 42 -28 l 360 -28 l 360 158 b 218 118 317 142 274 128 b 218 1031 186 363 186 788 b 360 990 274 1021 317 1007 l 360 1176 z "},"]":{"ha":401,"x_min":0,"x_max":0,"o":"m 360 1176 l 42 1176 l 42 990 b 183 1031 85 1007 128 1021 b 183 118 215 788 215 363 b 42 158 128 128 85 142 l 42 -28 l 360 -28 z "},"*":{"ha":518,"x_min":0,"x_max":0,"o":"m 206 651 b 260 808 214 703 236 757 b 313 651 283 757 303 703 l 440 729 b 350 838 408 758 378 796 b 490 892 396 863 446 881 l 417 1025 b 304 925 386 989 346 954 b 332 1092 308 982 317 1042 l 185 1092 b 213 925 201 1043 208 982 b 101 1025 171 954 131 989 l 28 892 b 168 838 72 881 122 863 b 76 729 140 796 110 758 z "},"_":{"ha":572,"x_min":0,"x_max":0,"o":"m 286 51 b 531 -4 414 51 492 33 l 531 238 b 286 182 492 200 414 182 b 42 238 158 182 81 200 l 42 -4 b 286 51 81 33 158 51 z "},"(":{"ha":401,"x_min":0,"x_max":0,"o":"m 194 575 b 322 996 194 821 214 996 b 360 990 333 996 346 994 l 360 1176 b 42 575 131 1190 42 1022 b 360 -28 42 126 131 -40 l 360 158 b 322 153 346 154 333 153 b 194 575 214 153 194 328 z "},")":{"ha":419,"x_min":0,"x_max":0,"o":"m 207 575 b 79 153 207 328 188 153 b 42 158 68 153 56 154 l 42 -28 b 360 575 271 -40 360 126 b 42 1176 360 1022 271 1190 l 42 990 b 79 996 56 994 68 996 b 207 575 188 996 207 821 z "},"{":{"ha":519,"x_min":0,"x_max":0,"o":"m 314 368 b 251 557 314 453 290 517 b 314 746 290 597 314 660 b 440 971 314 892 363 971 b 478 965 451 971 464 969 l 478 1153 b 163 763 272 1164 163 1026 b 72 635 163 657 122 635 l 33 635 l 33 478 l 72 478 b 163 350 122 478 163 457 b 478 -39 163 86 272 -51 l 478 147 b 440 142 464 143 451 142 b 314 368 363 142 314 222 z "},"}":{"ha":514,"x_min":0,"x_max":0,"o":"m 192 368 b 65 142 192 222 143 142 b 28 147 54 142 42 143 l 28 -39 b 343 350 233 -51 343 86 b 433 478 343 457 383 478 l 472 478 l 472 635 l 433 635 b 343 763 383 635 343 657 b 28 1153 343 1026 233 1164 l 28 965 b 65 971 42 969 54 971 b 192 746 143 971 192 892 b 254 557 192 660 215 597 b 192 368 215 517 192 453 z "},"/":{"ha":632,"x_min":0,"x_max":0,"o":"m 253 546 b 56 1 176 265 113 90 l 286 1 b 378 546 276 90 306 265 b 576 1096 456 829 519 1007 l 346 1096 b 253 546 357 1007 326 829 z "},"\\":{"ha":632,"x_min":0,"x_max":0,"o":"m 379 546 b 286 1096 304 829 275 1007 l 56 1096 b 254 546 113 1007 178 829 b 346 1 328 265 356 90 l 576 1 b 379 546 519 90 454 265 z "},"#":{"ha":1014,"x_min":0,"x_max":0,"o":"m 292 546 b 256 417 279 500 267 457 b 42 463 167 426 90 442 l 42 221 b 206 260 81 238 138 251 b 94 1 165 140 129 54 l 325 1 b 353 272 319 57 328 146 b 531 274 413 275 471 274 b 414 1 488 146 450 57 l 644 1 b 671 265 639 56 647 142 b 889 221 761 257 839 242 l 889 463 b 704 421 846 444 781 431 b 775 686 726 510 750 599 b 972 643 856 676 926 663 l 972 885 b 826 849 936 869 886 858 b 935 1096 865 963 901 1044 l 704 1096 b 679 833 711 1042 703 956 b 501 829 619 829 561 829 b 615 1096 543 954 581 1042 l 385 1096 b 360 838 392 1043 383 958 b 125 885 261 846 178 863 l 125 643 b 326 688 171 663 243 678 b 292 546 317 644 304 596 z m 574 410 b 383 408 510 407 447 406 b 460 697 406 506 432 601 b 649 696 522 700 586 699 b 574 410 625 600 601 504 z "},"%":{"ha":692,"x_min":0,"x_max":0,"o":"m 286 546 b 89 1 211 265 146 90 l 319 1 b 411 546 310 90 336 265 b 610 1096 486 829 553 1007 l 379 1096 b 286 546 390 1007 361 829 z m 158 1094 b 31 908 92 1094 42 1036 b 158 665 14 732 83 665 l 175 665 b 303 908 251 665 319 732 b 175 1094 292 1036 242 1094 z m 167 940 b 194 888 182 940 192 924 b 167 818 199 847 185 818 b 139 888 149 818 135 846 b 167 940 142 924 151 940 z m 517 429 b 389 243 450 429 400 371 b 517 0 372 67 442 0 l 533 0 b 661 243 610 0 678 67 b 533 429 650 371 600 429 z m 525 275 b 553 224 540 275 550 258 b 525 153 557 182 543 153 b 497 224 507 153 493 181 b 525 275 500 258 510 275 z "},"^":{"ha":688,"x_min":0,"x_max":0,"o":"m 196 844 b 28 650 132 729 79 667 l 228 529 b 304 779 215 583 240 664 b 343 846 318 804 331 826 b 383 779 356 826 369 804 b 460 529 447 664 472 583 l 660 650 b 492 844 608 667 556 729 b 432 1096 425 965 397 1043 l 256 1096 b 196 844 290 1043 263 965 z "},"`":{"ha":250,"x_min":0,"x_max":0,"o":"m 142 807 l 222 807 b 164 1000 196 871 169 943 l 28 1000 b 142 807 72 943 113 871 z "},"a":{"ha":785,"x_min":0,"x_max":0,"o":"m 160 417 b 28 0 124 204 85 83 l 333 0 b 315 331 301 78 299 183 b 393 340 339 338 364 340 b 469 331 422 340 447 338 b 451 0 486 183 483 78 l 757 0 b 625 417 700 85 661 208 l 581 676 b 588 1094 547 875 551 1004 l 197 1094 b 204 676 233 1004 238 875 z m 446 504 b 393 500 429 501 413 500 b 339 504 374 500 356 501 l 392 875 b 393 878 393 876 393 878 b 393 875 393 876 393 876 z "},"b":{"ha":715,"x_min":0,"x_max":0,"o":"m 104 417 b 28 0 104 219 81 89 l 350 0 b 688 329 554 0 688 106 b 542 606 688 461 632 561 b 642 835 613 651 642 735 b 350 1094 642 1011 542 1094 l 28 1094 b 104 676 81 1004 104 875 z m 476 774 b 351 665 476 710 428 665 l 271 665 l 271 676 b 282 875 271 753 275 818 l 338 875 b 476 774 438 875 476 844 z m 514 375 b 338 219 514 269 460 219 l 282 219 b 271 417 275 276 271 342 l 271 542 l 351 542 b 514 375 469 542 514 482 z "},"c":{"ha":636,"x_min":0,"x_max":0,"o":"m 353 1094 b 35 621 167 1094 64 950 b 360 0 -6 171 139 0 l 594 0 l 608 285 b 400 219 554 231 469 219 b 207 593 257 219 186 361 b 388 875 224 790 271 875 b 581 810 454 875 531 858 l 567 1094 z "},"d":{"ha":710,"x_min":0,"x_max":0,"o":"m 104 417 b 28 0 104 219 81 89 l 350 0 b 675 621 571 0 715 171 b 350 1094 646 954 540 1094 l 28 1094 b 104 676 81 1004 104 875 z m 503 593 b 303 219 524 358 450 219 l 282 219 b 271 417 275 276 271 342 l 271 676 b 282 875 271 753 275 818 l 303 875 b 503 593 433 875 485 800 z "},"e":{"ha":583,"x_min":0,"x_max":0,"o":"m 28 1094 l 38 1076 b 104 676 83 988 104 863 l 104 417 b 35 13 104 228 82 103 l 28 0 l 556 0 l 556 296 b 282 215 482 224 354 215 b 271 417 275 274 271 340 l 271 493 b 482 424 371 489 436 467 l 482 724 b 271 653 436 679 371 658 l 271 676 b 282 875 271 753 275 818 b 556 794 354 875 482 868 l 556 1094 z "},"f":{"ha":583,"x_min":0,"x_max":0,"o":"m 28 1094 l 36 1081 b 104 676 83 992 104 865 l 104 417 b 28 0 104 219 81 89 l 347 0 b 271 417 294 89 271 219 l 271 478 b 482 408 371 474 436 453 l 482 708 b 271 639 436 665 371 643 l 271 676 b 282 875 271 753 275 818 b 556 794 354 875 482 868 l 556 1094 z "},"g":{"ha":674,"x_min":0,"x_max":0,"o":"m 207 593 b 400 875 225 796 275 872 b 608 810 469 874 554 864 l 608 1094 l 360 1094 b 35 621 169 1094 64 954 b 360 0 -6 171 139 0 l 604 0 l 604 347 b 646 639 604 475 622 603 l 396 639 b 438 347 419 603 438 475 l 438 219 l 407 219 b 207 593 260 219 186 358 z "},"h":{"ha":781,"x_min":0,"x_max":0,"o":"m 104 417 b 28 0 104 219 81 89 l 347 0 b 271 415 294 89 271 218 b 390 428 306 424 346 428 b 510 415 435 428 475 424 b 433 0 510 218 486 89 l 753 0 b 676 417 700 89 676 219 l 676 676 b 753 1094 676 875 700 1004 l 433 1094 b 510 676 486 1004 510 875 l 510 600 b 390 588 475 592 435 588 b 271 600 346 588 306 592 l 271 676 b 347 1094 271 875 294 1004 l 28 1094 b 104 676 81 1004 104 875 z "},"i":{"ha":375,"x_min":0,"x_max":0,"o":"m 104 417 b 28 0 104 219 81 89 l 347 0 b 271 417 294 89 271 219 l 271 676 b 347 1094 271 875 294 1004 l 28 1094 b 104 676 81 1004 104 875 z "},"j":{"ha":672,"x_min":0,"x_max":0,"o":"m 256 0 b 568 479 440 0 568 146 l 568 676 b 644 1094 568 875 592 1004 l 325 1094 b 401 676 378 1004 401 875 l 401 519 b 197 219 401 331 328 219 b 28 285 147 219 88 231 l 42 0 z "},"k":{"ha":785,"x_min":0,"x_max":0,"o":"m 104 417 b 28 0 104 219 81 89 l 347 0 b 271 417 294 89 271 219 l 271 479 l 365 479 b 488 300 446 479 488 429 b 411 0 488 200 456 76 l 731 0 b 542 535 619 190 679 446 b 682 828 614 590 660 686 b 757 1094 696 921 710 1015 l 438 1094 b 514 807 488 1011 514 910 b 351 611 514 694 460 611 l 271 611 l 271 676 b 347 1094 271 875 294 1004 l 28 1094 b 104 676 81 1004 104 875 z "},"l":{"ha":625,"x_min":0,"x_max":0,"o":"m 104 417 b 28 0 104 219 81 89 l 583 0 l 597 296 b 324 215 524 224 396 215 b 282 217 310 215 296 215 b 271 417 275 274 271 340 l 271 676 b 347 1094 271 875 294 1004 l 28 1094 b 104 676 81 1004 104 875 z "},"m":{"ha":1014,"x_min":0,"x_max":0,"o":"m 104 417 b 28 0 104 219 81 89 l 347 0 b 271 417 294 89 271 219 l 271 676 b 279 853 271 743 274 801 b 338 676 297 800 317 742 l 346 650 b 358 219 408 456 419 310 l 656 219 b 668 650 594 310 606 456 l 676 676 b 735 853 697 742 717 800 b 743 676 740 801 743 743 l 743 417 b 667 0 743 219 719 89 l 986 0 b 910 417 933 89 910 219 l 910 676 b 986 1094 910 875 933 1004 l 568 1094 b 526 676 600 1004 589 872 l 518 650 b 515 642 517 647 517 644 l 510 624 b 507 615 508 621 508 618 b 504 624 506 618 506 621 l 499 642 b 496 650 497 644 497 647 l 488 676 b 446 1094 425 872 414 1004 l 28 1094 b 104 676 81 1004 104 875 z "},"n":{"ha":808,"x_min":0,"x_max":0,"o":"m 104 417 b 28 0 104 219 81 89 l 347 0 b 271 417 294 89 271 219 l 271 717 l 415 297 b 415 0 454 182 454 71 l 781 0 b 704 417 728 89 704 219 l 704 676 b 781 1094 704 875 728 1004 l 461 1094 b 538 676 514 1004 538 875 l 538 444 l 457 676 b 400 1094 388 875 356 1021 l 28 1094 b 104 676 81 1004 104 875 z "},"o":{"ha":735,"x_min":0,"x_max":0,"o":"m 346 1094 b 35 621 163 1094 64 942 b 346 0 -6 171 139 0 l 389 0 b 700 621 596 0 740 171 b 389 1094 671 942 572 1094 z m 368 874 b 528 593 465 874 511 786 b 368 221 547 371 483 221 b 207 593 251 221 188 369 b 368 874 224 786 271 874 z "},"p":{"ha":715,"x_min":0,"x_max":0,"o":"m 104 676 l 104 417 b 28 0 104 219 81 89 l 347 0 b 271 417 294 89 271 219 l 271 450 l 378 450 b 688 764 574 450 688 575 b 350 1094 688 989 554 1094 l 28 1094 b 104 676 81 1004 104 875 z m 514 725 b 351 582 514 632 454 582 l 271 582 l 271 676 b 282 875 271 753 275 818 l 338 875 b 514 725 460 875 514 829 z "},"q":{"ha":735,"x_min":0,"x_max":0,"o":"m 346 1094 b 35 621 163 1094 64 942 b 346 0 -6 171 139 0 l 389 0 b 444 4 408 0 426 1 b 450 -147 461 -56 463 -104 l 707 -15 b 594 85 667 1 629 33 b 700 621 686 183 724 365 b 389 1094 671 942 572 1094 z m 368 874 b 528 593 465 874 511 786 b 368 221 547 371 483 221 b 207 593 251 221 188 369 b 368 874 224 786 271 874 z "},"r":{"ha":758,"x_min":0,"x_max":0,"o":"m 104 676 l 104 417 b 28 0 104 219 81 89 l 347 0 b 271 417 294 89 271 219 l 271 479 l 365 479 b 488 300 446 479 488 429 b 411 0 488 200 456 76 l 731 0 b 556 524 622 183 675 426 b 688 781 640 575 688 668 b 350 1094 688 989 554 1094 l 28 1094 b 104 676 81 1004 104 875 z m 514 742 b 351 611 514 657 449 611 l 271 611 l 271 676 b 282 875 271 753 275 818 l 338 875 b 514 742 458 875 514 832 z "},"s":{"ha":636,"x_min":0,"x_max":0,"o":"m 329 1094 b 25 799 147 1094 25 972 b 221 515 25 661 97 575 b 424 340 378 439 424 401 b 250 219 424 283 383 219 b 56 285 183 219 107 233 l 69 0 l 283 0 b 608 329 485 0 608 132 b 347 654 608 538 463 603 b 207 779 271 689 207 717 b 361 875 207 838 254 875 b 564 810 431 875 513 861 l 550 1094 z "},"t":{"ha":681,"x_min":0,"x_max":0,"o":"m 28 1094 l 28 794 b 246 874 72 838 154 867 b 257 676 253 817 257 751 l 257 417 b 181 0 257 219 233 89 l 500 0 b 424 417 447 89 424 219 l 424 676 b 435 874 424 751 428 817 b 653 794 526 867 608 838 l 653 1094 z "},"u":{"ha":756,"x_min":0,"x_max":0,"o":"m 378 -1 b 651 311 567 -1 651 107 l 651 676 b 728 1094 651 875 675 1004 l 408 1094 b 485 676 461 1004 485 875 l 485 349 b 378 217 485 267 444 217 b 271 349 311 217 271 267 l 271 676 b 347 1094 271 875 294 1004 l 28 1094 b 104 676 81 1004 104 875 l 104 311 b 378 -1 104 107 189 -1 z "},"v":{"ha":785,"x_min":0,"x_max":0,"o":"m 160 676 l 204 417 b 211 0 238 219 247 89 l 574 0 b 581 417 538 89 547 219 l 625 676 b 757 1094 661 885 700 1010 l 451 1094 b 458 676 489 1001 486 871 l 393 219 b 392 217 392 218 392 217 b 392 219 392 218 392 218 l 326 676 b 333 1094 299 871 296 1001 l 28 1094 b 160 676 85 1011 124 890 z "},"w":{"ha":1206,"x_min":0,"x_max":0,"o":"m 160 676 l 204 417 b 211 0 238 219 247 89 l 574 0 b 581 417 538 89 549 219 l 603 554 l 625 417 b 632 0 657 219 668 89 l 994 0 b 1001 417 958 89 968 219 l 1046 676 b 1178 1094 1082 885 1121 1010 l 872 1094 b 879 676 910 1001 907 871 l 814 219 b 813 217 813 218 813 217 b 813 219 813 218 813 218 l 747 676 b 750 1085 721 864 717 993 b 751 1088 751 1086 751 1086 l 756 1092 b 757 1094 756 1093 757 1094 l 449 1094 b 450 1092 450 1094 450 1093 l 454 1088 b 456 1085 454 1086 456 1086 b 458 676 489 992 485 864 l 393 219 b 392 217 392 218 392 217 b 392 219 392 218 392 218 l 326 676 b 333 1094 299 871 296 1001 l 28 1094 b 160 676 85 1011 124 890 z "},"x":{"ha":751,"x_min":0,"x_max":0,"o":"m 194 706 l 247 547 l 194 388 b 28 0 124 179 92 83 l 310 0 b 361 388 281 92 303 194 l 375 435 l 389 388 b 440 0 444 194 469 92 l 724 0 b 557 388 660 85 626 185 l 503 547 l 557 706 b 724 1094 626 908 660 1010 l 440 1094 b 389 706 469 1001 444 900 l 375 658 l 361 706 b 310 1094 303 900 281 1001 l 28 1094 b 194 706 92 1011 124 914 z "},"y":{"ha":751,"x_min":0,"x_max":0,"o":"m 194 706 l 292 417 b 215 0 292 219 268 89 l 535 0 b 458 417 482 89 458 219 l 557 706 b 724 1094 626 908 660 1010 l 440 1094 b 389 706 469 1001 444 900 l 376 661 l 363 706 b 310 1094 306 900 281 1001 l 28 1094 b 194 706 92 1011 124 914 z "},"z":{"ha":615,"x_min":0,"x_max":0,"o":"m 588 1094 l 38 1094 l 38 794 b 311 875 111 868 239 875 l 379 875 b 290 676 358 818 328 753 l 160 417 b 49 217 122 342 85 275 l 28 0 l 588 0 l 588 297 b 314 217 514 225 386 217 l 260 217 b 349 417 281 274 310 342 l 479 676 b 588 875 517 751 553 818 z "},"~":{"ha":685,"x_min":0,"x_max":0,"o":"m 567 586 b 493 529 547 546 528 529 b 228 614 425 529 351 614 b 28 450 132 614 61 553 l 118 397 b 186 457 133 432 153 457 b 472 369 260 457 349 369 b 657 533 561 369 625 426 z "},"&":{"ha":865,"x_min":0,"x_max":0,"o":"m 765 465 l 536 585 b 518 379 560 519 550 444 l 399 522 b 574 854 496 600 588 697 b 329 1094 560 1015 446 1094 b 74 788 194 1094 58 988 b 160 554 79 717 110 632 b 31 244 82 485 18 393 b 307 0 43 94 154 0 b 539 88 382 0 464 26 l 611 0 l 838 0 l 656 217 b 765 465 699 282 736 364 z m 294 656 b 247 785 263 706 246 747 b 313 863 249 828 274 858 b 396 794 361 867 392 840 b 294 656 400 739 354 699 z m 406 249 b 301 217 374 229 338 217 b 196 293 240 217 200 243 b 265 418 192 339 221 379 z "},"@":{"ha":1088,"x_min":0,"x_max":0,"o":"m 482 -174 l 551 25 b 197 506 271 25 160 221 b 565 858 228 738 364 858 b 893 506 761 858 868 735 b 781 168 913 324 863 168 b 707 329 728 168 707 213 l 707 478 b 757 768 707 624 722 710 l 551 768 b 281 417 375 768 281 607 b 486 139 281 240 357 139 b 578 167 521 139 551 149 b 771 0 603 61 672 0 b 1054 531 967 0 1085 243 b 589 1060 1018 871 846 1060 l 538 1060 b 36 531 276 1060 74 874 b 482 -174 -8 124 131 -143 z m 547 624 l 563 624 b 568 478 565 583 568 535 l 568 333 b 518 304 556 313 539 304 b 444 428 469 304 444 354 b 547 624 444 524 482 624 z "},"\r":{"ha":347,"x_min":0,"x_max":0,"o":""},"\u0000":{"ha":0,"x_min":0,"x_max":0,"o":""}}}
